<svg width="313" height="43" viewBox="0 0 313 43" fill="none" xmlns="http://www.w3.org/2000/svg">
<path d="M13.8188 0H6.09668V6.10501H12.2057H18.3147V0H13.8188Z" fill="#FFFF00"/>
<path d="M13.2051 36.6486H6.09698V32.0789V30.5436V6.10547H0V30.5436V32.0789V36.6546H6.09698V42.7596H12.206H18.3151V36.6546H13.2051V36.6486Z" fill="#FFFF00"/>
<path d="M41.1445 42.7574H48.8665V36.6523H42.7575H36.6484V42.7574H41.1445Z" fill="#FFFF00"/>
<path d="M41.7583 6.10501H48.8665V10.6747V12.21V36.6542H54.9635V12.21V10.6747V6.10501H48.8665V0H42.7575H36.6484V6.10501H41.7583Z" fill="#FFFF00"/>
<path d="M31.8218 14.7695L27.5668 19.1251L23.3119 14.7695L19.057 19.1312L19.0748 19.1433L19.0332 19.1372L23.4009 23.5779L27.5609 27.8362L31.8159 23.4807H31.8218L36.0767 19.1251L31.8218 14.7695Z" fill="#FFFF00"/>
<path d="M271.819 0H264.097V6.10501H270.206H276.315V0H271.819Z" fill="#FFFF00"/>
<path d="M271.205 36.6486H264.097V32.0789V30.5436V6.10547H258V30.5436V32.0789V36.6546H264.097V42.7596H270.206H276.315V36.6546H271.205V36.6486Z" fill="#FFFF00"/>
<path d="M299.144 42.7574H306.867V36.6523H300.757H294.648V42.7574H299.144Z" fill="#FFFF00"/>
<path d="M299.758 6.10501H306.867V10.6747V12.21V36.6542H312.963V12.21V10.6747V6.10501H306.867V0H300.757H294.648V6.10501H299.758Z" fill="#FFFF00"/>
<path d="M279.293 26.9805H275.543V30.7314H279.293V26.9805Z" fill="#FFFF00"/>
<path d="M283.045 23.2285H279.292V26.9795H283.045V23.2285Z" fill="#FFFF00"/>
<path d="M290.62 11.9644V11.957H275.543V15.7228H286.792V19.4664H290.542V30.7304H294.306V15.7154V15.5748V11.9644H290.62Z" fill="#FFFF00"/>
<path d="M286.796 19.4727H283.046V23.2236H286.796V19.4727Z" fill="#FFFF00"/>
<path d="M99.8188 0H92.0967V6.10501H98.2057H104.315V0H99.8188Z" fill="#FFFF00"/>
<path d="M99.2051 36.6486H92.097V32.0789V30.5436V6.10547H86V30.5436V32.0789V36.6546H92.097V42.7596H98.206H104.315V36.6546H99.2051V36.6486Z" fill="#FFFF00"/>
<path d="M127.144 42.7574H134.867V36.6523H128.757H122.648V42.7574H127.144Z" fill="#FFFF00"/>
<path d="M127.758 6.10501H134.867V10.6747V12.21V36.6542H140.963V12.21V10.6747V6.10501H134.867V0H128.757H122.648V6.10501H127.758Z" fill="#FFFF00"/>
<path d="M108.616 26.7969H105.212V30.2018H108.616V26.7969Z" fill="#FFFF00"/>
<path d="M105.218 23.3984H101.814V26.8034H105.218V23.3984Z" fill="#FFFF00"/>
<path d="M101.809 19.9883H98.4053V23.3932H101.809V19.9883Z" fill="#FFFF00"/>
<path d="M105.218 16.5898H101.814V19.9948H105.218V16.5898Z" fill="#FFFF00"/>
<path d="M108.616 13.1836H105.212V16.5885H108.616V13.1836Z" fill="#FFFF00"/>
<path d="M120.757 26.7969H117.354V30.2018H120.757V26.7969Z" fill="#FFFF00"/>
<path d="M124.155 23.3984H120.751V26.8034H124.155V23.3984Z" fill="#FFFF00"/>
<path d="M127.559 19.9883H124.155V23.3932H127.559V19.9883Z" fill="#FFFF00"/>
<path d="M124.155 16.5898H120.751V19.9948H124.155V16.5898Z" fill="#FFFF00"/>
<path d="M120.757 13.1836H117.354V16.5885H120.757V13.1836Z" fill="#FFFF00"/>
<path d="M185.819 0H178.097V6.10501H184.206H190.315V0H185.819Z" fill="#FFFF00"/>
<path d="M185.205 36.6486H178.097V32.0789V30.5436V6.10547H172V30.5436V32.0789V36.6546H178.097V42.7596H184.206H190.315V36.6546H185.205V36.6486Z" fill="#FFFF00"/>
<path d="M213.144 42.7613H220.867V36.6562H214.757H208.648V42.7613H213.144Z" fill="#FFFF00"/>
<path d="M213.758 6.10501H220.867V10.6747V12.21V36.6542H226.963V12.21V10.6747V6.10501H220.867V0H214.757H208.648V6.10501H213.758Z" fill="#FFFF00"/>
<path d="M202.552 26.6992H190.18V30.1079H202.552V26.6992Z" fill="#FFFF00"/>
<path d="M199.459 19.8848H190.18V23.2935H199.459V19.8848Z" fill="#FFFF00"/>
<path d="M199.459 13.0664H190.18V16.4751H199.459V13.0664Z" fill="#FFFF00"/>
<path d="M210.064 23.293H202.552V26.7017H210.064V23.293Z" fill="#FFFF00"/>
<path d="M210.063 16.4766H199.458V19.8853H210.063V16.4766Z" fill="#FFFF00"/>
</svg>
